%TF.GenerationSoftware,KiCad,Pcbnew,8.0.3*%
%TF.CreationDate,2025-02-08T18:07:50+07:00*%
%TF.ProjectId,VESC V.2,56455343-2056-42e3-922e-6b696361645f,rev?*%
%TF.SameCoordinates,Original*%
%TF.FileFunction,Paste,Top*%
%TF.FilePolarity,Positive*%
%FSLAX46Y46*%
G04 Gerber Fmt 4.6, Leading zero omitted, Abs format (unit mm)*
G04 Created by KiCad (PCBNEW 8.0.3) date 2025-02-08 18:07:50*
%MOMM*%
%LPD*%
G01*
G04 APERTURE LIST*
G04 Aperture macros list*
%AMRoundRect*
0 Rectangle with rounded corners*
0 $1 Rounding radius*
0 $2 $3 $4 $5 $6 $7 $8 $9 X,Y pos of 4 corners*
0 Add a 4 corners polygon primitive as box body*
4,1,4,$2,$3,$4,$5,$6,$7,$8,$9,$2,$3,0*
0 Add four circle primitives for the rounded corners*
1,1,$1+$1,$2,$3*
1,1,$1+$1,$4,$5*
1,1,$1+$1,$6,$7*
1,1,$1+$1,$8,$9*
0 Add four rect primitives between the rounded corners*
20,1,$1+$1,$2,$3,$4,$5,0*
20,1,$1+$1,$4,$5,$6,$7,0*
20,1,$1+$1,$6,$7,$8,$9,0*
20,1,$1+$1,$8,$9,$2,$3,0*%
G04 Aperture macros list end*
%ADD10RoundRect,0.250000X0.250000X0.250000X-0.250000X0.250000X-0.250000X-0.250000X0.250000X-0.250000X0*%
%ADD11RoundRect,0.200000X-0.200000X-0.275000X0.200000X-0.275000X0.200000X0.275000X-0.200000X0.275000X0*%
%ADD12RoundRect,0.237500X0.237500X-0.287500X0.237500X0.287500X-0.237500X0.287500X-0.237500X-0.287500X0*%
%ADD13RoundRect,0.250000X0.475000X-0.250000X0.475000X0.250000X-0.475000X0.250000X-0.475000X-0.250000X0*%
%ADD14RoundRect,0.250000X0.250000X0.475000X-0.250000X0.475000X-0.250000X-0.475000X0.250000X-0.475000X0*%
%ADD15RoundRect,0.225000X0.250000X-0.225000X0.250000X0.225000X-0.250000X0.225000X-0.250000X-0.225000X0*%
%ADD16RoundRect,0.225000X-0.250000X0.225000X-0.250000X-0.225000X0.250000X-0.225000X0.250000X0.225000X0*%
%ADD17RoundRect,0.250000X-0.475000X0.250000X-0.475000X-0.250000X0.475000X-0.250000X0.475000X0.250000X0*%
%ADD18RoundRect,0.200000X0.275000X-0.200000X0.275000X0.200000X-0.275000X0.200000X-0.275000X-0.200000X0*%
%ADD19RoundRect,0.225000X0.225000X0.250000X-0.225000X0.250000X-0.225000X-0.250000X0.225000X-0.250000X0*%
%ADD20RoundRect,0.250000X0.650000X-0.325000X0.650000X0.325000X-0.650000X0.325000X-0.650000X-0.325000X0*%
%ADD21R,1.625600X0.609600*%
%ADD22RoundRect,0.200000X-0.275000X0.200000X-0.275000X-0.200000X0.275000X-0.200000X0.275000X0.200000X0*%
%ADD23R,3.800000X1.050000*%
%ADD24R,8.200000X10.700000*%
%ADD25RoundRect,0.200000X0.200000X0.275000X-0.200000X0.275000X-0.200000X-0.275000X0.200000X-0.275000X0*%
%ADD26RoundRect,0.225000X-0.225000X-0.250000X0.225000X-0.250000X0.225000X0.250000X-0.225000X0.250000X0*%
%ADD27RoundRect,0.035000X-0.700000X-0.105000X0.700000X-0.105000X0.700000X0.105000X-0.700000X0.105000X0*%
%ADD28RoundRect,0.035000X-0.105000X-0.700000X0.105000X-0.700000X0.105000X0.700000X-0.105000X0.700000X0*%
%ADD29R,1.250000X1.000000*%
%ADD30R,1.300000X0.300000*%
%ADD31R,3.700000X6.500000*%
%ADD32R,0.650000X0.400000*%
%ADD33R,2.400000X1.900000*%
%ADD34RoundRect,0.250000X-0.250000X-0.475000X0.250000X-0.475000X0.250000X0.475000X-0.250000X0.475000X0*%
%ADD35R,3.500000X2.350000*%
%ADD36RoundRect,0.150000X-0.150000X-0.200000X0.150000X-0.200000X0.150000X0.200000X-0.150000X0.200000X0*%
%ADD37R,1.257300X0.508000*%
%ADD38R,2.438400X5.588000*%
%ADD39R,2.438400X0.889000*%
%ADD40RoundRect,0.150000X0.150000X0.425000X-0.150000X0.425000X-0.150000X-0.425000X0.150000X-0.425000X0*%
%ADD41RoundRect,0.075000X0.075000X0.500000X-0.075000X0.500000X-0.075000X-0.500000X0.075000X-0.500000X0*%
%ADD42O,1.000000X2.100000*%
%ADD43O,1.000000X1.800000*%
%ADD44RoundRect,0.375000X-0.625000X-0.375000X0.625000X-0.375000X0.625000X0.375000X-0.625000X0.375000X0*%
%ADD45RoundRect,0.500000X-0.500000X-1.400000X0.500000X-1.400000X0.500000X1.400000X-0.500000X1.400000X0*%
%ADD46RoundRect,0.150000X0.150000X0.200000X-0.150000X0.200000X-0.150000X-0.200000X0.150000X-0.200000X0*%
%ADD47RoundRect,0.250000X2.450000X-0.650000X2.450000X0.650000X-2.450000X0.650000X-2.450000X-0.650000X0*%
%ADD48RoundRect,0.237500X-0.237500X0.287500X-0.237500X-0.287500X0.237500X-0.287500X0.237500X0.287500X0*%
%ADD49RoundRect,0.250000X-2.450000X0.650000X-2.450000X-0.650000X2.450000X-0.650000X2.450000X0.650000X0*%
%ADD50RoundRect,0.250000X0.650000X-1.000000X0.650000X1.000000X-0.650000X1.000000X-0.650000X-1.000000X0*%
%ADD51RoundRect,0.250000X-0.650000X0.325000X-0.650000X-0.325000X0.650000X-0.325000X0.650000X0.325000X0*%
%ADD52RoundRect,0.250000X0.300000X-0.300000X0.300000X0.300000X-0.300000X0.300000X-0.300000X-0.300000X0*%
%ADD53RoundRect,0.112500X0.187500X0.112500X-0.187500X0.112500X-0.187500X-0.112500X0.187500X-0.112500X0*%
G04 APERTURE END LIST*
D10*
%TO.C,D3*%
X102500000Y-48800000D03*
X100000000Y-48800000D03*
%TD*%
D11*
%TO.C,R14*%
X128650000Y-72485000D03*
X130300000Y-72485000D03*
%TD*%
%TO.C,R11*%
X128850000Y-84640000D03*
X130500000Y-84640000D03*
%TD*%
D12*
%TO.C,D5*%
X95200000Y-37800000D03*
X95200000Y-36050000D03*
%TD*%
D13*
%TO.C,C21*%
X110000000Y-64900000D03*
X110000000Y-63000000D03*
%TD*%
D14*
%TO.C,C38*%
X98550000Y-58300000D03*
X96650000Y-58300000D03*
%TD*%
D15*
%TO.C,C12*%
X90000000Y-79275000D03*
X90000000Y-77725000D03*
%TD*%
D11*
%TO.C,R34*%
X159475000Y-66800000D03*
X161125000Y-66800000D03*
%TD*%
%TO.C,R41*%
X132475000Y-82900000D03*
X134125000Y-82900000D03*
%TD*%
%TO.C,R8*%
X116075000Y-80200000D03*
X117725000Y-80200000D03*
%TD*%
D16*
%TO.C,C6*%
X79930000Y-59412500D03*
X79930000Y-60962500D03*
%TD*%
D17*
%TO.C,C58*%
X109800000Y-50250000D03*
X109800000Y-52150000D03*
%TD*%
D18*
%TO.C,R51*%
X74750000Y-55525000D03*
X74750000Y-53875000D03*
%TD*%
D19*
%TO.C,C54*%
X79575000Y-86250000D03*
X78025000Y-86250000D03*
%TD*%
D16*
%TO.C,C2*%
X89400000Y-59825000D03*
X89400000Y-61375000D03*
%TD*%
D20*
%TO.C,C33*%
X178200000Y-60700000D03*
X178200000Y-57750000D03*
%TD*%
D13*
%TO.C,C30*%
X107700000Y-83650000D03*
X107700000Y-81750000D03*
%TD*%
D21*
%TO.C,U4*%
X73365800Y-44700040D03*
X73365800Y-46599960D03*
X75855000Y-45650000D03*
%TD*%
D11*
%TO.C,R6*%
X113900000Y-67600000D03*
X115550000Y-67600000D03*
%TD*%
D22*
%TO.C,R44*%
X104500000Y-42830000D03*
X104500000Y-44480000D03*
%TD*%
%TO.C,R27*%
X79500000Y-87725000D03*
X79500000Y-89375000D03*
%TD*%
D23*
%TO.C,Q5*%
X161000000Y-85590000D03*
X161000000Y-86860000D03*
X161000000Y-88130000D03*
D24*
X171600000Y-89400000D03*
D23*
X161000000Y-90670000D03*
X161000000Y-91940000D03*
X161000000Y-93210000D03*
%TD*%
D20*
%TO.C,C32*%
X180800000Y-60675000D03*
X180800000Y-57725000D03*
%TD*%
D11*
%TO.C,R35*%
X159450000Y-82900000D03*
X161100000Y-82900000D03*
%TD*%
D22*
%TO.C,R32*%
X95200000Y-32700000D03*
X95200000Y-34350000D03*
%TD*%
D25*
%TO.C,R43*%
X75220000Y-73580000D03*
X73570000Y-73580000D03*
%TD*%
D26*
%TO.C,C55*%
X81025000Y-86250000D03*
X82575000Y-86250000D03*
%TD*%
D19*
%TO.C,C3*%
X75145000Y-60340000D03*
X73595000Y-60340000D03*
%TD*%
D11*
%TO.C,R36*%
X132475000Y-49300000D03*
X134125000Y-49300000D03*
%TD*%
D27*
%TO.C,U1*%
X78580000Y-65380000D03*
X78580000Y-65880000D03*
X78580000Y-66380000D03*
X78580000Y-66880000D03*
X78580000Y-67380000D03*
X78580000Y-67880000D03*
X78580000Y-68380000D03*
X78580000Y-68880000D03*
X78580000Y-69380000D03*
X78580000Y-69880000D03*
X78580000Y-70380000D03*
X78580000Y-70880000D03*
X78580000Y-71380000D03*
X78580000Y-71880000D03*
X78580000Y-72380000D03*
X78580000Y-72880000D03*
D28*
X80500000Y-74800000D03*
X81000000Y-74800000D03*
X81500000Y-74800000D03*
X82000000Y-74800000D03*
X82500000Y-74800000D03*
X83000000Y-74800000D03*
X83500000Y-74800000D03*
X84000000Y-74800000D03*
X84500000Y-74800000D03*
X85000000Y-74800000D03*
X85500000Y-74800000D03*
X86000000Y-74800000D03*
X86500000Y-74800000D03*
X87000000Y-74800000D03*
X87500000Y-74800000D03*
X88000000Y-74800000D03*
D27*
X89920000Y-72880000D03*
X89920000Y-72380000D03*
X89920000Y-71880000D03*
X89920000Y-71380000D03*
X89920000Y-70880000D03*
X89920000Y-70380000D03*
X89920000Y-69880000D03*
X89920000Y-69380000D03*
X89920000Y-68880000D03*
X89920000Y-68380000D03*
X89920000Y-67880000D03*
X89920000Y-67380000D03*
X89920000Y-66880000D03*
X89920000Y-66380000D03*
X89920000Y-65880000D03*
X89920000Y-65380000D03*
D28*
X88000000Y-63460000D03*
X87500000Y-63460000D03*
X87000000Y-63460000D03*
X86500000Y-63460000D03*
X86000000Y-63460000D03*
X85500000Y-63460000D03*
X85000000Y-63460000D03*
X84500000Y-63460000D03*
X84000000Y-63460000D03*
X83500000Y-63460000D03*
X83000000Y-63460000D03*
X82500000Y-63460000D03*
X82000000Y-63460000D03*
X81500000Y-63460000D03*
X81000000Y-63460000D03*
X80500000Y-63460000D03*
%TD*%
D25*
%TO.C,R20*%
X83600000Y-49250000D03*
X81950000Y-49250000D03*
%TD*%
D16*
%TO.C,C27*%
X114425000Y-80425000D03*
X114425000Y-81975000D03*
%TD*%
%TO.C,C14*%
X97300000Y-61712500D03*
X97300000Y-63262500D03*
%TD*%
D19*
%TO.C,C51*%
X85550000Y-86250000D03*
X84000000Y-86250000D03*
%TD*%
D29*
%TO.C,SW1*%
X76775000Y-54250000D03*
X84525000Y-54250000D03*
%TD*%
D16*
%TO.C,C25*%
X114691550Y-72925000D03*
X114691550Y-74475000D03*
%TD*%
D18*
%TO.C,R22*%
X99200000Y-89400000D03*
X99200000Y-87750000D03*
%TD*%
D19*
%TO.C,C46*%
X97675000Y-86262500D03*
X96125000Y-86262500D03*
%TD*%
D30*
%TO.C,IC1*%
X102425000Y-66100000D03*
X102425000Y-66600000D03*
X102425000Y-67100000D03*
X102425000Y-67600000D03*
X102425000Y-68100000D03*
X102425000Y-68600000D03*
X102425000Y-69100000D03*
X102425000Y-69600000D03*
X102425000Y-70100000D03*
X102425000Y-70600000D03*
X102425000Y-71100000D03*
X102425000Y-71600000D03*
X102425000Y-72100000D03*
X102425000Y-72600000D03*
X102425000Y-73100000D03*
X102425000Y-73600000D03*
X102425000Y-74100000D03*
X102425000Y-74600000D03*
X102425000Y-75100000D03*
X102425000Y-75600000D03*
X102425000Y-76100000D03*
X102425000Y-76600000D03*
X102425000Y-77100000D03*
X102425000Y-77600000D03*
X102425000Y-78100000D03*
X102425000Y-78600000D03*
X102425000Y-79100000D03*
X102425000Y-79600000D03*
X109975000Y-79600000D03*
X109975000Y-79100000D03*
X109975000Y-78600000D03*
X109975000Y-78100000D03*
X109975000Y-77600000D03*
X109975000Y-77100000D03*
X109975000Y-76600000D03*
X109975000Y-76100000D03*
X109975000Y-75600000D03*
X109975000Y-75100000D03*
X109975000Y-74600000D03*
X109975000Y-74100000D03*
X109975000Y-73600000D03*
X109975000Y-73100000D03*
X109975000Y-72600000D03*
X109975000Y-72100000D03*
X109975000Y-71600000D03*
X109975000Y-71100000D03*
X109975000Y-70600000D03*
X109975000Y-70100000D03*
X109975000Y-69600000D03*
X109975000Y-69100000D03*
X109975000Y-68600000D03*
X109975000Y-68100000D03*
X109975000Y-67600000D03*
X109975000Y-67100000D03*
X109975000Y-66600000D03*
X109975000Y-66100000D03*
D31*
X106200000Y-72850000D03*
D32*
X106200000Y-69400000D03*
X106200000Y-76300000D03*
%TD*%
D15*
%TO.C,C40*%
X123000000Y-76175000D03*
X123000000Y-74625000D03*
%TD*%
D18*
%TO.C,R18*%
X126100000Y-76225000D03*
X126100000Y-74575000D03*
%TD*%
D11*
%TO.C,R9*%
X116100000Y-83200000D03*
X117750000Y-83200000D03*
%TD*%
D26*
%TO.C,C45*%
X99150000Y-86262500D03*
X100700000Y-86262500D03*
%TD*%
D22*
%TO.C,R48*%
X116100000Y-88275000D03*
X116100000Y-89925000D03*
%TD*%
D15*
%TO.C,C11*%
X88500000Y-79275000D03*
X88500000Y-77725000D03*
%TD*%
D11*
%TO.C,R13*%
X128650000Y-71010000D03*
X130300000Y-71010000D03*
%TD*%
D25*
%TO.C,R30*%
X79910000Y-44600000D03*
X78260000Y-44600000D03*
%TD*%
D26*
%TO.C,C42*%
X78330000Y-42930000D03*
X79880000Y-42930000D03*
%TD*%
D11*
%TO.C,R38*%
X132450000Y-81400000D03*
X134100000Y-81400000D03*
%TD*%
D26*
%TO.C,C52*%
X87000000Y-86250000D03*
X88550000Y-86250000D03*
%TD*%
D11*
%TO.C,R3*%
X97225000Y-65200000D03*
X98875000Y-65200000D03*
%TD*%
D16*
%TO.C,C4*%
X86800000Y-77725000D03*
X86800000Y-79275000D03*
%TD*%
D26*
%TO.C,C41*%
X85725000Y-42050000D03*
X87275000Y-42050000D03*
%TD*%
D11*
%TO.C,R42*%
X73595000Y-75080000D03*
X75245000Y-75080000D03*
%TD*%
D26*
%TO.C,C49*%
X93125000Y-86262500D03*
X94675000Y-86262500D03*
%TD*%
D15*
%TO.C,C9*%
X76960000Y-78500000D03*
X76960000Y-76950000D03*
%TD*%
D33*
%TO.C,Y1*%
X74100000Y-62500000D03*
X74100000Y-66600000D03*
%TD*%
D18*
%TO.C,R24*%
X93125000Y-89375000D03*
X93125000Y-87725000D03*
%TD*%
D25*
%TO.C,R29*%
X79910000Y-46450000D03*
X78260000Y-46450000D03*
%TD*%
D34*
%TO.C,C22*%
X113550000Y-64600000D03*
X115450000Y-64600000D03*
%TD*%
D22*
%TO.C,R47*%
X100000000Y-93175000D03*
X100000000Y-94825000D03*
%TD*%
D35*
%TO.C,L1*%
X109800000Y-60625000D03*
X109800000Y-54575000D03*
%TD*%
D36*
%TO.C,D7*%
X106430000Y-40925000D03*
X105030000Y-40925000D03*
%TD*%
D13*
%TO.C,C29*%
X105600000Y-83650000D03*
X105600000Y-81750000D03*
%TD*%
D26*
%TO.C,C20*%
X97125000Y-80600000D03*
X98675000Y-80600000D03*
%TD*%
D37*
%TO.C,U3*%
X87177550Y-47525000D03*
X87177550Y-46255000D03*
X87177550Y-44985000D03*
X87177550Y-43715000D03*
X81932450Y-43715000D03*
X81932450Y-44985000D03*
X81932450Y-46255000D03*
X81932450Y-47525000D03*
%TD*%
D38*
%TO.C,R49*%
X129700000Y-90272500D03*
D39*
X129700000Y-94400000D03*
X124772400Y-94400000D03*
D38*
X124772400Y-90272500D03*
%TD*%
D15*
%TO.C,C13*%
X102000000Y-63250000D03*
X102000000Y-61700000D03*
%TD*%
D26*
%TO.C,C16*%
X97225000Y-72900000D03*
X98775000Y-72900000D03*
%TD*%
D16*
%TO.C,C26*%
X114716550Y-76135100D03*
X114716550Y-77685100D03*
%TD*%
D23*
%TO.C,Q2*%
X134000000Y-53590000D03*
X134000000Y-54860000D03*
X134000000Y-56130000D03*
D24*
X144600000Y-57400000D03*
D23*
X134000000Y-58670000D03*
X134000000Y-59940000D03*
X134000000Y-61210000D03*
%TD*%
D13*
%TO.C,C31*%
X109800000Y-83650000D03*
X109800000Y-81750000D03*
%TD*%
D15*
%TO.C,C7*%
X78500000Y-78500000D03*
X78500000Y-76950000D03*
%TD*%
D40*
%TO.C,J2*%
X107080000Y-38375000D03*
X106280000Y-38375000D03*
D41*
X105130000Y-38375000D03*
X104130000Y-38375000D03*
X103630000Y-38375000D03*
X102630000Y-38375000D03*
D40*
X101480000Y-38375000D03*
X100680000Y-38375000D03*
X100680000Y-38375000D03*
X101480000Y-38375000D03*
D41*
X102130000Y-38375000D03*
X103130000Y-38375000D03*
X104630000Y-38375000D03*
X105630000Y-38375000D03*
D40*
X106280000Y-38375000D03*
X107080000Y-38375000D03*
D42*
X108200000Y-37800000D03*
D43*
X108200000Y-33620000D03*
D42*
X99560000Y-37800000D03*
D43*
X99560000Y-33620000D03*
%TD*%
D19*
%TO.C,C10*%
X75145000Y-68720000D03*
X73595000Y-68720000D03*
%TD*%
D18*
%TO.C,R26*%
X86975000Y-89375000D03*
X86975000Y-87725000D03*
%TD*%
D26*
%TO.C,C17*%
X97250000Y-71400000D03*
X98800000Y-71400000D03*
%TD*%
D22*
%TO.C,R31*%
X92800000Y-32750000D03*
X92800000Y-34400000D03*
%TD*%
D44*
%TO.C,U2*%
X97150000Y-51300000D03*
X97150000Y-53600000D03*
D45*
X103450000Y-53600000D03*
D44*
X97150000Y-55900000D03*
%TD*%
D14*
%TO.C,C39*%
X98400000Y-48800000D03*
X96500000Y-48800000D03*
%TD*%
D11*
%TO.C,R7*%
X116075000Y-81700000D03*
X117725000Y-81700000D03*
%TD*%
D17*
%TO.C,C23*%
X107600000Y-50250000D03*
X107600000Y-52150000D03*
%TD*%
D38*
%TO.C,R50*%
X129427600Y-54972500D03*
D39*
X129427600Y-59100000D03*
X124500000Y-59100000D03*
D38*
X124500000Y-54972500D03*
%TD*%
D16*
%TO.C,C24*%
X114725000Y-69125000D03*
X114725000Y-70675000D03*
%TD*%
D11*
%TO.C,R15*%
X128450000Y-62500000D03*
X130100000Y-62500000D03*
%TD*%
D22*
%TO.C,R25*%
X85475000Y-87725000D03*
X85475000Y-89375000D03*
%TD*%
%TO.C,R2*%
X98850000Y-61675000D03*
X98850000Y-63325000D03*
%TD*%
D23*
%TO.C,Q1*%
X161000000Y-53590000D03*
X161000000Y-54860000D03*
X161000000Y-56130000D03*
D24*
X171600000Y-57400000D03*
D23*
X161000000Y-58670000D03*
X161000000Y-59940000D03*
X161000000Y-61210000D03*
%TD*%
D26*
%TO.C,C1*%
X73625000Y-70200000D03*
X75175000Y-70200000D03*
%TD*%
D46*
%TO.C,D6*%
X99560000Y-40945000D03*
X100960000Y-40945000D03*
%TD*%
D11*
%TO.C,R5*%
X97200000Y-68300000D03*
X98850000Y-68300000D03*
%TD*%
D19*
%TO.C,C48*%
X91575000Y-86262500D03*
X90025000Y-86262500D03*
%TD*%
D23*
%TO.C,Q4*%
X134000000Y-69590000D03*
X134000000Y-70860000D03*
X134000000Y-72130000D03*
D24*
X144600000Y-73400000D03*
D23*
X134000000Y-74670000D03*
X134000000Y-75940000D03*
X134000000Y-77210000D03*
%TD*%
D11*
%TO.C,R12*%
X128862500Y-86145000D03*
X130512500Y-86145000D03*
%TD*%
D16*
%TO.C,C8*%
X78400000Y-59425000D03*
X78400000Y-60975000D03*
%TD*%
D15*
%TO.C,C44*%
X96125000Y-89375000D03*
X96125000Y-87825000D03*
%TD*%
D22*
%TO.C,R23*%
X91575000Y-87750000D03*
X91575000Y-89400000D03*
%TD*%
D47*
%TO.C,C37*%
X179800000Y-79750000D03*
X179800000Y-74650000D03*
%TD*%
D23*
%TO.C,Q3*%
X161000000Y-69590000D03*
X161000000Y-70860000D03*
X161000000Y-72130000D03*
D24*
X171600000Y-73400000D03*
D23*
X161000000Y-74670000D03*
X161000000Y-75940000D03*
X161000000Y-77210000D03*
%TD*%
D22*
%TO.C,R21*%
X97650000Y-87775000D03*
X97650000Y-89425000D03*
%TD*%
D48*
%TO.C,D11*%
X102200000Y-93125000D03*
X102200000Y-94875000D03*
%TD*%
D15*
%TO.C,C50*%
X83975000Y-89287500D03*
X83975000Y-87737500D03*
%TD*%
D11*
%TO.C,R10*%
X116100000Y-84700000D03*
X117750000Y-84700000D03*
%TD*%
D46*
%TO.C,D9*%
X102312500Y-40945000D03*
X103712500Y-40945000D03*
%TD*%
D23*
%TO.C,Q6*%
X134000000Y-85690000D03*
X134000000Y-86960000D03*
X134000000Y-88230000D03*
D24*
X144600000Y-89500000D03*
D23*
X134000000Y-90770000D03*
X134000000Y-92040000D03*
X134000000Y-93310000D03*
%TD*%
D11*
%TO.C,R37*%
X132500000Y-67000000D03*
X134150000Y-67000000D03*
%TD*%
D22*
%TO.C,R46*%
X106700000Y-93275000D03*
X106700000Y-94925000D03*
%TD*%
D11*
%TO.C,R39*%
X132475000Y-50900000D03*
X134125000Y-50900000D03*
%TD*%
%TO.C,R4*%
X97212500Y-66700000D03*
X98862500Y-66700000D03*
%TD*%
%TO.C,R16*%
X128450000Y-64035000D03*
X130100000Y-64035000D03*
%TD*%
%TO.C,R33*%
X159500000Y-50900000D03*
X161150000Y-50900000D03*
%TD*%
D48*
%TO.C,D10*%
X104500000Y-93125000D03*
X104500000Y-94875000D03*
%TD*%
D49*
%TO.C,C34*%
X179900000Y-65250000D03*
X179900000Y-70350000D03*
%TD*%
D50*
%TO.C,D2*%
X132300000Y-41200000D03*
X132300000Y-37200000D03*
%TD*%
D22*
%TO.C,R40*%
X135600000Y-65450000D03*
X135600000Y-67100000D03*
%TD*%
D51*
%TO.C,C36*%
X180400000Y-83250000D03*
X180400000Y-86200000D03*
%TD*%
D52*
%TO.C,D1*%
X114800000Y-61200000D03*
X114800000Y-58400000D03*
%TD*%
D15*
%TO.C,C5*%
X91000000Y-61375000D03*
X91000000Y-59825000D03*
%TD*%
D22*
%TO.C,R1*%
X100425000Y-61687500D03*
X100425000Y-63337500D03*
%TD*%
D19*
%TO.C,C43*%
X79840000Y-48200000D03*
X78290000Y-48200000D03*
%TD*%
D51*
%TO.C,C35*%
X178100000Y-83225000D03*
X178100000Y-86175000D03*
%TD*%
D15*
%TO.C,C47*%
X90050000Y-89375000D03*
X90050000Y-87825000D03*
%TD*%
D19*
%TO.C,C15*%
X98775000Y-74600000D03*
X97225000Y-74600000D03*
%TD*%
D18*
%TO.C,R19*%
X70925000Y-46495000D03*
X70925000Y-44845000D03*
%TD*%
D22*
%TO.C,R45*%
X102800000Y-42875000D03*
X102800000Y-44525000D03*
%TD*%
D12*
%TO.C,D4*%
X92800000Y-37800000D03*
X92800000Y-36050000D03*
%TD*%
D17*
%TO.C,C59*%
X112000000Y-50250000D03*
X112000000Y-52150000D03*
%TD*%
D22*
%TO.C,R17*%
X124545000Y-74567500D03*
X124545000Y-76217500D03*
%TD*%
D15*
%TO.C,C53*%
X78000000Y-89325000D03*
X78000000Y-87775000D03*
%TD*%
D53*
%TO.C,D8*%
X109990000Y-40885000D03*
X107890000Y-40885000D03*
%TD*%
D19*
%TO.C,C18*%
X98675000Y-78300000D03*
X97125000Y-78300000D03*
%TD*%
D16*
%TO.C,C57*%
X114500000Y-88325000D03*
X114500000Y-89875000D03*
%TD*%
D18*
%TO.C,R28*%
X81000000Y-89375000D03*
X81000000Y-87725000D03*
%TD*%
D26*
%TO.C,C19*%
X97250000Y-69800000D03*
X98800000Y-69800000D03*
%TD*%
D16*
%TO.C,C28*%
X114425000Y-83525000D03*
X114425000Y-85075000D03*
%TD*%
D19*
%TO.C,C56*%
X75195000Y-72080000D03*
X73645000Y-72080000D03*
%TD*%
M02*
