M48
; DRILL file {KiCad 8.0.3} date 2025-02-08T18:07:42+0700
; FORMAT={-:-/ absolute / inch / decimal}
; #@! TF.CreationDate,2025-02-08T18:07:42+07:00
; #@! TF.GenerationSoftware,Kicad,Pcbnew,8.0.3
; #@! TF.FileFunction,Plated,1,4,PTH
FMAT,2
INCH
; #@! TA.AperFunction,Plated,PTH,ViaDrill
T1C0.0118
; #@! TA.AperFunction,Plated,PTH,ViaDrill
T2C0.0157
; #@! TA.AperFunction,Plated,PTH,ComponentDrill
T3C0.0236
; #@! TA.AperFunction,Plated,PTH,ComponentDrill
T4C0.0374
; #@! TA.AperFunction,Plated,PTH,ComponentDrill
T5C0.0472
; #@! TA.AperFunction,Plated,PTH,ComponentDrill
T6C0.1260
; #@! TA.AperFunction,Plated,PTH,ComponentDrill
T7C0.1693
; #@! TA.AperFunction,Plated,PTH,ComponentDrill
T8C0.1791
%
G90
G05
T1
X2.6575Y-2.8307
X2.7244Y-2.8543
X2.7283Y-2.9173
X2.7283Y-2.9882
X2.7283Y-3.0551
X2.7402Y-3.2598
X2.7874Y-3.0866
X2.8425Y-3.2598
X2.8504Y-2.374
X2.8543Y-3.0866
X2.8583Y-2.689
X2.8583Y-2.7205
X2.8583Y-2.748
X2.8583Y-2.7795
X2.8583Y-2.8228
X2.8583Y-2.8543
X2.8583Y-2.8819
X2.8583Y-2.9134
X2.8974Y-2.9559
X2.8976Y-2.3268
X2.937Y-1.7972
X2.937Y-3.0866
X2.9596Y-2.7638
X2.9646Y-3.2598
X2.9882Y-3.0709
X2.9882Y-3.1063
X3.0354Y-2.7244
X3.0374Y-2.7902
X3.0394Y-1.7972
X3.0669Y-3.2598
X3.0709Y-2.2992
X3.0866Y-2.4006
X3.0866Y-2.9114
X3.0866Y-2.9606
X3.1024Y-2.2992
X3.1299Y-2.2992
X3.1329Y-3.3957
X3.1339Y-3.0709
X3.1339Y-3.1063
X3.142Y-2.8211
X3.1457Y-1.6437
X3.1457Y-1.9429
X3.1535Y-2.8504
X3.1575Y-3.2598
X3.1614Y-2.2992
X3.1818Y-2.8674
X3.185Y-1.9035
X3.189Y-1.6752
X3.19Y-3.3957
X3.2071Y-2.8861
X3.248Y-3.2598
X3.2515Y-2.5783
X3.2756Y-2.5547
X3.2815Y-2.4409
X3.3012Y-1.5571
X3.3071Y-2.6019
X3.3307Y-1.9232
X3.3307Y-1.9547
X3.3681Y-3.3957
X3.374Y-2.5512
X3.375Y-1.6555
X3.3858Y-1.8209
X3.3976Y-2.8465
X3.4016Y-3.0039
X3.4055Y-2.6339
X3.4213Y-3.1614
X3.4232Y-2.4409
X3.4252Y-3.3898
X3.4331Y-2.5512
X3.4528Y-1.5728
X3.4803Y-1.6398
X3.4803Y-1.6713
X3.4843Y-3.06
X3.4843Y-3.1614
X3.5197Y-2.4163
X3.5217Y-2.2972
X3.5492Y-1.6673
X3.5492Y-1.8169
X3.5492Y-1.9803
X3.5492Y-2.1043
X3.5492Y-2.2323
X3.5728Y-1.5492
X3.5846Y-2.2972
X3.5866Y-3.122
X3.5911Y-2.6764
X3.5945Y-2.8535
X3.5945Y-2.9921
X3.595Y-2.7992
X3.5965Y-2.9193
X3.6053Y-3.3962
X3.6496Y-2.5591
X3.6535Y-1.3
X3.6575Y-1.5354
X3.6594Y-1.6654
X3.6594Y-1.813
X3.6594Y-1.9764
X3.6594Y-2.1024
X3.6594Y-2.2264
X3.6634Y-2.4902
X3.6654Y-2.4173
X3.6663Y-3.4016
X3.6673Y-2.9193
X3.6693Y-2.9902
X3.7244Y-3.1772
X3.7353Y-2.9301
X3.7366Y-2.9773
X3.7441Y-1.9823
X3.7441Y-2.561
X3.7461Y-2.1043
X3.7461Y-2.4173
X3.7461Y-2.4902
X3.7473Y-1.2835
X3.748Y-2.2303
X3.75Y-1.8898
X3.752Y-1.5335
X3.7598Y-1.7953
X3.7717Y-3.1772
X3.7874Y-2.624
X3.7874Y-2.687
X3.7874Y-2.7441
X3.7874Y-2.8091
X3.8455Y-3.3962
X3.878Y-1.5945
X3.878Y-1.6299
X3.8858Y-1.7972
X3.8858Y-1.8701
X3.9035Y-3.3962
X3.9252Y-3.0709
X3.9252Y-3.0945
X3.9449Y-2.9528
X3.9478Y-2.7874
X3.957Y-2.9198
X3.9646Y-2.8892
X3.9764Y-2.6969
X3.9803Y-1.8701
X3.9873Y-2.7481
X4.0Y-2.5315
X4.002Y-1.7972
X4.0079Y-3.378
X4.0079Y-3.4134
X4.0118Y-3.1575
X4.0276Y-2.5315
X4.0394Y-3.1575
X4.0689Y-1.9055
X4.0709Y-1.937
X4.0709Y-3.6457
X4.0709Y-3.689
X4.0787Y-3.435
X4.0802Y-3.0556
X4.0965Y-1.9055
X4.0965Y-1.937
X4.122Y-1.937
X4.124Y-1.9055
X4.1339Y-3.3346
X4.1555Y-3.2165
X4.1772Y-3.3346
X4.189Y-1.6496
X4.2087Y-1.9331
X4.2205Y-3.3346
X4.2402Y-3.2165
X4.2598Y-1.9331
X4.2598Y-3.3346
X4.2756Y-2.4764
X4.2992Y-1.9331
X4.3031Y-3.3346
X4.3189Y-3.1713
X4.3228Y-3.2165
X4.3425Y-1.9331
X4.3425Y-3.3346
X4.3858Y-1.9331
X4.3858Y-2.4764
X4.4291Y-1.9331
X4.4803Y-2.0512
X4.4803Y-2.0787
X4.4921Y-2.252
X4.4921Y-3.5787
X4.5049Y-3.2274
X4.5079Y-2.0512
X4.5079Y-2.0787
X4.5154Y-2.9321
X4.5164Y-3.0585
X4.5167Y-2.7825
X4.5197Y-2.252
X4.5236Y-3.5787
X4.5374Y-3.1339
X4.5472Y-2.252
X4.5699Y-3.1575
X4.5866Y-2.6457
X4.5866Y-2.6772
X4.6339Y-2.0
X4.6339Y-2.0512
X4.6339Y-2.1024
X4.6339Y-2.1535
X4.6339Y-2.2047
X4.6339Y-2.2559
X4.6339Y-2.4646
X4.6339Y-2.5157
X4.6339Y-2.5669
X4.6339Y-2.6181
X4.6339Y-2.6693
X4.6348Y-2.937
X4.6654Y-3.2756
X4.6654Y-3.3346
X4.6907Y-2.7793
X4.7638Y-2.0472
X4.7638Y-2.0768
X4.7638Y-2.1063
X4.7638Y-2.1358
X4.7638Y-2.1654
X4.7638Y-2.1949
X4.7638Y-2.2244
X4.7638Y-2.2539
X4.7638Y-2.2835
X4.7736Y-3.435
X4.7736Y-3.4646
X4.7736Y-3.4941
X4.7736Y-3.5236
X4.7736Y-3.5531
X4.7736Y-3.5827
X4.7736Y-3.6122
X4.7736Y-3.6417
X4.7736Y-3.6713
X4.7933Y-2.0472
X4.7933Y-2.0768
X4.7933Y-2.1063
X4.7933Y-2.1358
X4.7933Y-2.1654
X4.7933Y-2.1949
X4.7933Y-2.2244
X4.7933Y-2.2539
X4.7933Y-2.2835
X4.8031Y-3.435
X4.8031Y-3.4646
X4.8031Y-3.4941
X4.8031Y-3.5236
X4.8031Y-3.5531
X4.8031Y-3.5827
X4.8031Y-3.6122
X4.8031Y-3.6417
X4.8031Y-3.6713
X4.8091Y-2.5079
X4.813Y-2.5531
X4.8228Y-2.0472
X4.8228Y-2.0768
X4.8228Y-2.1063
X4.8228Y-2.1358
X4.8228Y-2.1654
X4.8228Y-2.1949
X4.8228Y-2.2244
X4.8228Y-2.2539
X4.8228Y-2.2835
X4.8268Y-2.8976
X4.8327Y-3.435
X4.8327Y-3.4646
X4.8327Y-3.4941
X4.8327Y-3.5236
X4.8327Y-3.5531
X4.8327Y-3.5827
X4.8327Y-3.6122
X4.8327Y-3.6417
X4.8327Y-3.6713
X4.8425Y-2.997
X4.8583Y-2.8976
X4.9055Y-2.937
X4.9488Y-2.8976
X4.9803Y-2.8976
X5.0571Y-2.4606
X5.065Y-2.7957
X5.0728Y-3.3323
X5.1181Y-1.2795
X5.1181Y-1.4961
X5.122Y-2.4606
X5.1299Y-2.7957
X5.1378Y-3.3323
X5.1575Y-1.7008
X5.1614Y-2.5039
X5.1614Y-2.5354
X5.1693Y-2.1083
X5.1693Y-2.1693
X5.1693Y-2.2264
X5.1693Y-2.2874
X5.1791Y-3.4626
X5.1791Y-3.5197
X5.1791Y-3.5728
X5.1791Y-3.624
X5.1791Y-3.6713
X5.189Y-1.7008
X5.2165Y-1.2795
X5.2205Y-1.7008
X5.2303Y-2.2618
X5.2343Y-3.7382
X5.2362Y-3.5197
X5.252Y-1.7008
X5.2992Y-3.5217
X5.3012Y-3.7382
X5.3051Y-2.2598
X5.315Y-1.2795
X5.315Y-1.3524
X5.315Y-1.4252
X5.315Y-1.4961
X5.3622Y-3.5217
X5.3622Y-3.7402
X5.376Y-2.2598
X5.3937Y-2.1949
X5.3937Y-2.3189
X5.3937Y-2.3839
X5.3937Y-2.435
X5.4016Y-3.439
X5.4016Y-3.4882
X5.4035Y-3.5472
X5.4035Y-3.5984
X5.4035Y-3.6516
X5.4035Y-3.7087
X5.4134Y-1.2795
X5.4134Y-1.3524
X5.4134Y-1.4252
X5.4134Y-1.4961
X5.4882Y-3.2126
X5.4882Y-3.252
X5.4882Y-3.2913
X5.4882Y-3.3307
X5.4882Y-3.3701
X5.4882Y-3.4094
X5.4882Y-3.4488
X5.4882Y-3.4882
X5.4882Y-3.5276
X5.4882Y-3.5669
X5.4882Y-3.6063
X5.4882Y-3.6457
X5.4882Y-3.685
X5.4882Y-3.7244
X5.4921Y-1.9685
X5.4921Y-2.0079
X5.4921Y-2.0472
X5.4921Y-2.0866
X5.4921Y-2.126
X5.4921Y-2.1654
X5.4921Y-2.2047
X5.4921Y-2.2441
X5.4921Y-2.2835
X5.4921Y-2.3228
X5.4921Y-2.3622
X5.4921Y-2.4016
X5.4921Y-2.4409
X5.4921Y-2.5
X5.4921Y-2.5394
X5.4921Y-2.6181
X5.4921Y-2.6575
X5.4921Y-2.6969
X5.4921Y-2.7362
X5.4921Y-2.7756
X5.4921Y-2.815
X5.4921Y-2.8543
X5.4921Y-2.8937
X5.4921Y-2.9331
X5.4921Y-2.9724
X5.4921Y-3.0118
X5.4921Y-3.0512
X5.4921Y-3.0906
X5.5118Y-1.2795
X5.5118Y-1.3524
X5.5118Y-1.4252
X5.5118Y-1.4961
X5.5236Y-3.7598
X5.5276Y-3.1299
X5.5276Y-3.2126
X5.5276Y-3.252
X5.5276Y-3.2913
X5.5315Y-1.9685
X5.5315Y-2.0079
X5.5315Y-2.5
X5.5315Y-2.5394
X5.5315Y-2.6181
X5.5315Y-2.6575
X5.563Y-3.7598
X5.5669Y-3.1299
X5.5669Y-3.2126
X5.5669Y-3.252
X5.5669Y-3.2913
X5.5709Y-1.9685
X5.5709Y-2.0079
X5.5709Y-2.5
X5.5709Y-2.5394
X5.5709Y-2.6181
X5.5709Y-2.6575
X5.6024Y-3.7598
X5.6063Y-3.1299
X5.6063Y-3.2126
X5.6063Y-3.252
X5.6063Y-3.2913
X5.6102Y-1.2795
X5.6102Y-1.3524
X5.6102Y-1.4252
X5.6102Y-1.4961
X5.6102Y-1.9685
X5.6102Y-2.0079
X5.6102Y-2.5
X5.6102Y-2.5394
X5.6102Y-2.6181
X5.6102Y-2.6575
X5.6457Y-3.1299
X5.6457Y-3.2126
X5.6457Y-3.252
X5.6457Y-3.2913
X5.6457Y-3.7598
X5.6496Y-1.9685
X5.6496Y-2.0079
X5.6496Y-2.5
X5.6496Y-2.5394
X5.6496Y-2.6181
X5.6496Y-2.6575
X5.685Y-3.1299
X5.685Y-3.2126
X5.685Y-3.252
X5.685Y-3.2913
X5.685Y-3.7598
X5.689Y-1.9685
X5.689Y-2.0079
X5.689Y-2.5
X5.689Y-2.5394
X5.689Y-2.6181
X5.689Y-2.6575
X5.7087Y-1.2795
X5.7087Y-1.4961
X5.7244Y-3.1299
X5.7244Y-3.2126
X5.7244Y-3.252
X5.7244Y-3.2913
X5.7244Y-3.7598
X5.7283Y-1.9685
X5.7283Y-2.0079
X5.7283Y-2.5
X5.7283Y-2.5394
X5.7283Y-2.6181
X5.7283Y-2.6575
X5.7638Y-3.1299
X5.7638Y-3.2126
X5.7638Y-3.252
X5.7638Y-3.2913
X5.7638Y-3.7598
X5.7677Y-1.9685
X5.7677Y-2.0079
X5.7677Y-2.5
X5.7677Y-2.5394
X5.7677Y-2.6181
X5.7677Y-2.6575
X5.8031Y-3.1299
X5.8031Y-3.2126
X5.8031Y-3.252
X5.8031Y-3.2913
X5.8031Y-3.7598
X5.8071Y-1.2795
X5.8071Y-1.3524
X5.8071Y-1.4252
X5.8071Y-1.4961
X5.8071Y-1.9685
X5.8071Y-2.0079
X5.8071Y-2.5
X5.8071Y-2.5394
X5.8071Y-2.6181
X5.8071Y-2.6575
X5.8425Y-3.1299
X5.8425Y-3.2126
X5.8425Y-3.252
X5.8425Y-3.2913
X5.8425Y-3.7598
X5.8465Y-1.9685
X5.8465Y-2.0079
X5.8465Y-2.5
X5.8465Y-2.5394
X5.8465Y-2.6181
X5.8465Y-2.6575
X5.8819Y-3.2126
X5.8819Y-3.252
X5.8819Y-3.2913
X5.8819Y-3.3307
X5.8819Y-3.3701
X5.8819Y-3.4094
X5.8819Y-3.4449
X5.8819Y-3.4843
X5.8819Y-3.5236
X5.8819Y-3.563
X5.8819Y-3.6024
X5.8819Y-3.6417
X5.8819Y-3.6811
X5.8819Y-3.7205
X5.8819Y-3.7598
X5.8858Y-1.9685
X5.8858Y-2.0079
X5.8858Y-2.0472
X5.8858Y-2.0866
X5.8858Y-2.126
X5.8858Y-2.1654
X5.8858Y-2.2047
X5.8858Y-2.2441
X5.8858Y-2.3031
X5.8858Y-2.3425
X5.8858Y-2.3819
X5.8858Y-2.4213
X5.8858Y-2.5
X5.8858Y-2.5394
X5.8858Y-2.6181
X5.8858Y-2.6575
X5.8858Y-2.6969
X5.8858Y-2.7362
X5.8858Y-2.7756
X5.8858Y-2.815
X5.8858Y-2.8543
X5.8858Y-2.8937
X5.8858Y-2.9331
X5.8858Y-2.9724
X5.8858Y-3.0118
X5.8858Y-3.0512
X5.8858Y-3.0906
X5.8858Y-3.1299
X5.9055Y-1.2795
X5.9055Y-1.3524
X5.9055Y-1.4252
X5.9055Y-1.4961
X5.9213Y-3.2126
X5.9213Y-3.252
X5.9213Y-3.2913
X5.9213Y-3.3307
X5.9213Y-3.3701
X5.9213Y-3.563
X5.9213Y-3.6024
X5.9213Y-3.6417
X5.9213Y-3.6811
X5.9213Y-3.7205
X5.9213Y-3.7598
X5.9252Y-1.9685
X5.9252Y-2.0079
X5.9252Y-2.0472
X5.9252Y-2.0866
X5.9252Y-2.126
X5.9252Y-2.1654
X5.9252Y-2.4606
X5.9252Y-2.5
X5.9252Y-2.5394
X5.9252Y-2.6181
X5.9252Y-2.6575
X5.9252Y-2.6969
X5.9252Y-2.7362
X5.9252Y-2.7756
X5.9252Y-3.0118
X5.9252Y-3.0512
X5.9252Y-3.0906
X5.9252Y-3.1299
X5.9606Y-3.2126
X5.9606Y-3.252
X5.9606Y-3.2913
X5.9606Y-3.3307
X5.9606Y-3.6024
X5.9606Y-3.6417
X5.9606Y-3.6811
X5.9606Y-3.7205
X5.9606Y-3.7598
X5.9646Y-1.9685
X5.9646Y-2.0079
X5.9646Y-2.0472
X5.9646Y-2.0866
X5.9646Y-2.126
X5.9646Y-2.4606
X5.9646Y-2.5
X5.9646Y-2.5394
X5.9646Y-2.6181
X5.9646Y-2.6575
X5.9646Y-2.6969
X5.9646Y-2.7362
X5.9646Y-3.0512
X5.9646Y-3.0906
X5.9646Y-3.1299
X6.0039Y-1.2795
X6.0039Y-1.3524
X6.0039Y-1.4252
X6.0039Y-1.4961
X6.0039Y-1.9685
X6.0039Y-2.0079
X6.0039Y-2.0472
X6.0039Y-2.0866
X6.0039Y-2.4606
X6.0039Y-2.5
X6.0039Y-2.5394
X6.0039Y-2.6181
X6.0039Y-2.6575
X6.0039Y-2.6969
X6.0039Y-2.7362
X6.0039Y-3.0512
X6.0039Y-3.0906
X6.0039Y-3.1299
X6.0039Y-3.2126
X6.0039Y-3.252
X6.0039Y-3.2913
X6.0039Y-3.6417
X6.0039Y-3.6811
X6.0039Y-3.7205
X6.0039Y-3.7598
X6.0433Y-1.9685
X6.0433Y-2.0079
X6.0433Y-2.0472
X6.0433Y-2.0866
X6.0433Y-2.4606
X6.0433Y-2.5
X6.0433Y-2.5394
X6.0433Y-2.6181
X6.0433Y-2.6575
X6.0433Y-2.6969
X6.0433Y-3.0906
X6.0433Y-3.1299
X6.0433Y-3.2126
X6.0433Y-3.252
X6.0433Y-3.2913
X6.0433Y-3.6417
X6.0433Y-3.6811
X6.0433Y-3.7205
X6.0433Y-3.7598
X6.0827Y-1.9685
X6.0827Y-2.0079
X6.0827Y-2.0472
X6.0827Y-2.0866
X6.0827Y-2.4606
X6.0827Y-2.5
X6.0827Y-2.5394
X6.0827Y-2.6181
X6.0827Y-2.6575
X6.0827Y-2.6969
X6.0827Y-3.0906
X6.0827Y-3.1299
X6.0827Y-3.2126
X6.0827Y-3.252
X6.0827Y-3.2913
X6.0827Y-3.6417
X6.0827Y-3.6811
X6.0827Y-3.7205
X6.0827Y-3.7598
X6.1024Y-1.2795
X6.1024Y-1.3524
X6.1024Y-1.4252
X6.1024Y-1.4961
X6.122Y-1.9685
X6.122Y-2.0079
X6.122Y-2.0472
X6.122Y-2.0866
X6.122Y-2.4606
X6.122Y-2.5
X6.122Y-2.5394
X6.122Y-2.6181
X6.122Y-2.6575
X6.122Y-2.6969
X6.122Y-2.7362
X6.122Y-3.0512
X6.122Y-3.0906
X6.122Y-3.1299
X6.122Y-3.2126
X6.122Y-3.252
X6.122Y-3.2913
X6.122Y-3.6417
X6.122Y-3.6811
X6.122Y-3.7205
X6.122Y-3.7598
X6.1614Y-1.9685
X6.1614Y-2.0079
X6.1614Y-2.0472
X6.1614Y-2.0866
X6.1614Y-2.126
X6.1614Y-2.4213
X6.1614Y-2.4606
X6.1614Y-2.5
X6.1614Y-2.5394
X6.1614Y-2.6181
X6.1614Y-2.6575
X6.1614Y-2.6969
X6.1614Y-2.7362
X6.1614Y-3.0512
X6.1614Y-3.0906
X6.1614Y-3.1299
X6.1614Y-3.2126
X6.1614Y-3.252
X6.1614Y-3.2913
X6.1614Y-3.3307
X6.1614Y-3.6024
X6.1614Y-3.6417
X6.1614Y-3.6811
X6.1614Y-3.7205
X6.1614Y-3.7598
X6.2008Y-1.2795
X6.2008Y-1.3524
X6.2008Y-1.4252
X6.2008Y-1.4961
X6.2008Y-1.9685
X6.2008Y-2.0079
X6.2008Y-2.0472
X6.2008Y-2.0866
X6.2008Y-2.126
X6.2008Y-2.1654
X6.2008Y-2.3819
X6.2008Y-2.4213
X6.2008Y-2.4606
X6.2008Y-2.5
X6.2008Y-2.5394
X6.2008Y-2.6181
X6.2008Y-2.6575
X6.2008Y-2.6969
X6.2008Y-2.7362
X6.2008Y-2.7756
X6.2008Y-3.0118
X6.2008Y-3.0512
X6.2008Y-3.0906
X6.2008Y-3.1299
X6.2008Y-3.2126
X6.2008Y-3.252
X6.2008Y-3.2913
X6.2008Y-3.3307
X6.2008Y-3.3701
X6.2008Y-3.563
X6.2008Y-3.6024
X6.2008Y-3.6417
X6.2008Y-3.6811
X6.2008Y-3.7205
X6.2008Y-3.7598
X6.2992Y-1.2795
X6.2992Y-1.3524
X6.2992Y-1.4252
X6.2992Y-1.4961
X6.3976Y-1.2795
X6.3976Y-1.4961
X6.4961Y-1.2795
X6.4961Y-1.376
X6.4961Y-1.4961
X6.5945Y-1.2795
X6.5945Y-1.376
X6.5945Y-1.4961
X6.5945Y-1.5748
X6.5945Y-1.6732
X6.5945Y-1.7717
X6.5945Y-1.8701
X6.5945Y-1.9685
X6.6535Y-2.5197
X6.6535Y-2.5807
X6.6535Y-2.6378
X6.6535Y-3.1496
X6.6535Y-3.2087
X6.6535Y-3.2677
X6.6535Y-3.7795
X6.6535Y-3.8583
X6.6654Y-1.378
X6.6654Y-1.4764
X6.6654Y-1.5748
X6.6654Y-1.6732
X6.6654Y-1.7717
X6.6654Y-1.8701
X6.6654Y-1.9685
X6.6929Y-1.2795
X6.7402Y-1.378
X6.7402Y-1.4764
X6.7402Y-1.5748
X6.7402Y-1.6732
X6.7402Y-1.7717
X6.7402Y-1.8701
X6.7402Y-1.9685
X6.752Y-2.5197
X6.752Y-2.5807
X6.752Y-2.6378
X6.752Y-3.1496
X6.752Y-3.2087
X6.752Y-3.2677
X6.752Y-3.7795
X6.752Y-3.8583
X6.7913Y-1.2795
X6.815Y-1.3799
X6.815Y-1.4783
X6.815Y-1.5768
X6.815Y-1.6752
X6.815Y-1.7736
X6.815Y-1.872
X6.815Y-1.9705
X6.8504Y-2.5197
X6.8504Y-2.5807
X6.8504Y-2.6378
X6.8504Y-3.1496
X6.8504Y-3.2087
X6.8504Y-3.2677
X6.8504Y-3.7795
X6.8504Y-3.8583
X6.8898Y-1.2795
X6.8898Y-1.378
X6.8898Y-1.4764
X6.8898Y-1.5748
X6.8898Y-1.6732
X6.8898Y-1.7717
X6.8898Y-1.8701
X6.8898Y-1.9685
X6.9685Y-2.4803
X6.9685Y-3.2283
X6.9764Y-2.8307
X6.9764Y-2.874
X6.9803Y-1.5236
X6.9803Y-1.5709
X6.9803Y-1.6142
X6.9803Y-1.6614
X6.9803Y-1.7087
X6.9803Y-1.7559
X6.9803Y-1.7992
X6.9803Y-1.8465
X6.9803Y-1.8898
X6.9803Y-1.937
X6.9803Y-1.9803
X6.9803Y-2.0276
X6.9803Y-2.0748
X6.9803Y-2.122
X6.9803Y-2.1654
X6.9803Y-2.2126
X6.9843Y-3.4488
X6.9843Y-3.4961
X6.9843Y-3.5394
X6.9843Y-3.5866
X7.0276Y-2.8307
X7.0276Y-2.874
X7.0315Y-1.5236
X7.0315Y-1.5709
X7.0315Y-1.6142
X7.0315Y-1.6614
X7.0315Y-1.7087
X7.0315Y-1.7559
X7.0315Y-1.7992
X7.0315Y-1.8465
X7.0315Y-1.8898
X7.0315Y-1.937
X7.0315Y-1.9803
X7.0315Y-2.0276
X7.0315Y-2.0748
X7.0315Y-2.122
X7.0315Y-2.1654
X7.0315Y-2.2126
X7.0354Y-3.4488
X7.0354Y-3.4961
X7.0354Y-3.5394
X7.0354Y-3.5866
X7.0472Y-2.4803
X7.0472Y-3.2283
X7.0787Y-2.8307
X7.0787Y-2.874
X7.0827Y-1.5236
X7.0827Y-1.5709
X7.0827Y-1.6142
X7.0827Y-1.6614
X7.0827Y-1.7087
X7.0827Y-1.7559
X7.0827Y-1.7992
X7.0827Y-1.8465
X7.0827Y-1.8898
X7.0827Y-1.937
X7.0827Y-1.9803
X7.0827Y-2.0276
X7.0827Y-2.0748
X7.0827Y-2.122
X7.0827Y-2.1654
X7.0827Y-2.2126
X7.0866Y-3.4488
X7.0866Y-3.4961
X7.0866Y-3.5394
X7.0866Y-3.5866
X7.126Y-2.4803
X7.126Y-3.2283
X7.1299Y-2.8307
X7.1299Y-2.874
X7.1339Y-1.5236
X7.1339Y-1.5709
X7.1339Y-1.6142
X7.1339Y-1.6614
X7.1339Y-1.7087
X7.1339Y-1.7559
X7.1339Y-1.7992
X7.1339Y-1.8465
X7.1339Y-1.8898
X7.1339Y-1.937
X7.1339Y-1.9803
X7.1339Y-2.0276
X7.1339Y-2.0748
X7.1339Y-2.122
X7.1339Y-2.1654
X7.1339Y-2.2126
X7.1378Y-3.4488
X7.1378Y-3.4961
X7.1378Y-3.5394
X7.1378Y-3.5866
X7.1811Y-2.8307
X7.1811Y-2.874
X7.185Y-1.5236
X7.185Y-1.5709
X7.185Y-1.6142
X7.185Y-1.6614
X7.185Y-1.7087
X7.185Y-1.7559
X7.185Y-1.7992
X7.185Y-1.8465
X7.185Y-1.8898
X7.185Y-1.937
X7.185Y-1.9803
X7.185Y-2.0276
X7.185Y-2.0748
X7.185Y-2.122
X7.185Y-2.1654
X7.185Y-2.2126
X7.189Y-3.4488
X7.189Y-3.4961
X7.189Y-3.5394
X7.189Y-3.5866
T2
X2.4606Y-3.5315
X2.5059Y-2.3287
X2.5059Y-2.5039
X2.5669Y-1.687
X2.7126Y-1.5394
X2.7795Y-3.8425
X2.7815Y-3.5354
X2.8406Y-1.4114
X2.8898Y-3.6457
X3.0Y-3.7539
X3.3287Y-2.124
X3.9528Y-3.8386
X3.9724Y-3.5768
X4.2126Y-3.5748
X4.2126Y-3.8386
X4.2776Y-2.5571
X4.2776Y-2.6004
X4.2776Y-2.6417
X4.3307Y-2.5551
X4.372Y-3.5748
X4.6614Y-3.0
X4.8031Y-3.2047
X5.0Y-3.2047
X5.0551Y-2.6772
X5.061Y-2.9291
X5.061Y-2.9665
X5.061Y-3.0039
X5.061Y-3.0413
X5.0984Y-2.9291
X5.0984Y-2.9665
X5.0984Y-3.0039
X5.0984Y-3.0413
X5.1358Y-2.9291
X5.1358Y-2.9665
X5.1358Y-3.0039
X5.1358Y-3.0413
X5.1457Y-3.7795
X5.1732Y-2.7815
X5.1732Y-2.8189
X5.1732Y-2.8563
X5.1732Y-2.8937
X5.1732Y-2.9291
X5.1732Y-2.9665
X5.1732Y-3.0039
X5.1732Y-3.0413
X5.1732Y-3.0787
X5.3445Y-1.643
X5.3465Y-1.7205
X5.3484Y-1.7953
X5.3484Y-1.876
X5.498Y-1.643
X5.5Y-1.7205
X5.502Y-1.7953
X5.502Y-1.876
X5.6476Y-1.643
X5.6516Y-1.7953
X5.6516Y-1.876
X5.8012Y-1.643
X5.8012Y-1.7185
X5.8051Y-1.7953
X5.8051Y-1.876
X5.9488Y-1.643
X5.9488Y-1.7185
X5.9528Y-1.7953
X5.9528Y-1.876
X6.1024Y-1.643
X6.1024Y-1.7185
X6.1063Y-1.7953
X6.1063Y-1.876
X6.252Y-1.643
X6.252Y-1.7185
X6.2559Y-1.7953
X6.2559Y-1.876
X6.4035Y-1.7953
X6.4035Y-1.876
X6.4055Y-1.643
T4
X2.5669Y-1.8543
X2.5669Y-1.9528
X2.5669Y-2.0512
X2.5669Y-2.1496
X2.5709Y-2.6811
X2.5709Y-2.7795
X2.5709Y-2.878
X2.5709Y-2.9764
X2.5709Y-3.0748
X2.5709Y-3.1732
X2.5709Y-3.2717
X3.0197Y-1.378
X3.1181Y-1.378
X3.2165Y-1.378
X3.2441Y-3.7441
X3.315Y-1.378
X3.3425Y-3.7441
X3.4134Y-1.378
X3.4409Y-3.7441
X3.5394Y-3.7441
X3.6378Y-3.7441
X3.7362Y-3.7441
X4.3898Y-3.7441
X4.4882Y-3.7441
X4.5866Y-3.7441
T5
X5.689Y-1.4208
X5.689Y-1.716
X6.4055Y-1.4213
X6.4055Y-1.7165
T6
X2.5591Y-1.378
X2.5591Y-3.7402
X7.0866Y-1.378
X7.0866Y-3.7402
T7
X6.063Y-2.2835
X6.063Y-2.8937
X6.063Y-3.4646
T8
X4.6161Y-1.3898
X4.8996Y-1.3898
T3
G00X3.9197Y-1.3394
M15
G01X3.9197Y-1.3079
M16
G05
G00X3.9197Y-1.5098
M15
G01X3.9197Y-1.4665
M16
G05
G00X4.2598Y-1.3394
M15
G01X4.2598Y-1.3079
M16
G05
G00X4.2598Y-1.5098
M15
G01X4.2598Y-1.4665
M16
G05
M30
